<svg width="16" height="16" viewBox="0 0 16 16" fill="none" xmlns="http://www.w3.org/2000/svg">
<path d="M5.77779 2.66667C5.65991 2.66667 5.54687 2.71349 5.46352 2.79684C5.38017 2.88019 5.33334 2.99324 5.33334 3.11111C5.33334 3.22898 5.38017 3.34203 5.46352 3.42538C5.54687 3.50873 5.65991 3.55555 5.77779 3.55555C6.19557 3.55555 6.96312 5.24267 6.96312 8C6.96312 10.7573 6.19557 12.4444 5.77779 12.4444C5.65991 12.4444 5.54687 12.4913 5.46352 12.5746C5.38017 12.658 5.33334 12.771 5.33334 12.8889C5.33334 13.0068 5.38017 13.1198 5.46352 13.2032C5.54687 13.2865 5.65991 13.3333 5.77779 13.3333C8.71868 13.3333 11.1111 10.9409 11.1111 8C11.1111 5.05911 8.71868 2.66667 5.77779 2.66667ZM7.08134 12.2493C7.59023 11.2236 7.85201 9.60578 7.85201 8C7.85201 6.39422 7.59023 4.77644 7.08134 3.75067C8.89779 4.30889 10.2222 6.00267 10.2222 8C10.2222 9.99733 8.89779 11.6911 7.08134 12.2493Z" fill="white"/>
</svg>
