<svg width="16" height="16" viewBox="0 0 16 16" fill="none" xmlns="http://www.w3.org/2000/svg">
<path d="M10.6667 3.55555C10.7846 3.55555 10.8976 3.50873 10.9809 3.42538C11.0643 3.34203 11.1111 3.22898 11.1111 3.11111C11.1111 2.99324 11.0643 2.88019 10.9809 2.79684C10.8976 2.71349 10.7846 2.66667 10.6667 2.66667C7.72579 2.66667 5.33334 5.05911 5.33334 8C5.33334 10.9409 7.72579 13.3333 10.6667 13.3333C10.7846 13.3333 10.8976 13.2865 10.9809 13.2032C11.0643 13.1198 11.1111 13.0068 11.1111 12.8889C11.1111 12.771 11.0643 12.658 10.9809 12.5746C10.8976 12.4913 10.7846 12.4444 10.6667 12.4444C10.2489 12.4444 9.48134 10.7573 9.48134 8C9.48134 5.24267 10.2489 3.55555 10.6667 3.55555ZM9.36312 12.2498C7.54668 11.6911 6.22223 9.99733 6.22223 8C6.22223 6.00267 7.54668 4.30889 9.36312 3.75022C8.85423 4.77644 8.5929 6.39422 8.5929 8C8.5929 9.60578 8.85423 11.2236 9.36312 12.2498Z" fill="white"/>
</svg>
