<svg width="16" height="16" viewBox="0 0 16 16" fill="none" xmlns="http://www.w3.org/2000/svg">
<path d="M11.5555 8C11.5555 6.03956 9.96044 4.44444 7.99999 4.44444C6.03955 4.44444 4.44444 6.03956 4.44444 8C4.44444 9.96044 6.03955 11.5556 7.99999 11.5556C9.96044 11.5556 11.5555 9.96044 11.5555 8ZM7.99999 10.6667C6.52933 10.6667 5.33333 9.47067 5.33333 8C5.33333 6.52933 6.52933 5.33333 7.99999 5.33333C9.47066 5.33333 10.6667 6.52933 10.6667 8C10.6667 9.47067 9.47066 10.6667 7.99999 10.6667ZM7.55555 1.77778H8.44444V3.55556H7.55555V1.77778ZM3.28622 3.91467L3.91466 3.28622L5.17155 4.54311L4.5431 5.17156L3.28622 3.91467ZM1.77777 7.55556H3.55555V8.44444H1.77777V7.55556ZM3.28622 12.0853L4.5431 10.8284L5.17155 11.4569L3.91466 12.7138L3.28622 12.0853ZM7.55555 12.4444H8.44444V14.2222H7.55555V12.4444ZM10.8284 11.4569L11.4569 10.8284L12.7138 12.0853L12.0853 12.7138L10.8284 11.4569ZM12.4444 7.55556H14.2222V8.44444H12.4444V7.55556ZM10.8284 4.54311L12.0853 3.28622L12.7138 3.91467L11.4569 5.17156L10.8284 4.54311Z" fill="white"/>
<path d="M7.99999 10.6667C6.52933 10.6667 5.33333 9.47067 5.33333 8C5.33333 6.52933 6.52933 5.33333 7.99999 5.33333C9.47066 5.33333 10.6667 6.52933 10.6667 8C10.6667 9.47067 9.47066 10.6667 7.99999 10.6667Z" fill="white"/>
</svg>
