<svg width="16" height="16" viewBox="0 0 16 16" fill="none" xmlns="http://www.w3.org/2000/svg">
<path d="M5.77776 2.66667C5.65988 2.66667 5.54684 2.7135 5.46349 2.79685C5.38014 2.8802 5.33331 2.99324 5.33331 3.11112C5.33331 3.22899 5.38014 3.34204 5.46349 3.42539C5.54684 3.50874 5.65988 3.55556 5.77776 3.55556C6.19554 3.55556 6.96309 5.24267 6.96309 8.00001C6.96309 10.7573 6.19554 12.4445 5.77776 12.4445C5.65988 12.4445 5.54684 12.4913 5.46349 12.5746C5.38014 12.658 5.33331 12.771 5.33331 12.8889C5.33331 13.0068 5.38014 13.1198 5.46349 13.2032C5.54684 13.2865 5.65988 13.3333 5.77776 13.3333C8.71865 13.3333 11.1111 10.9409 11.1111 8.00001C11.1111 5.05912 8.71865 2.66667 5.77776 2.66667ZM7.08131 12.2493C7.5902 11.2236 7.85198 9.60578 7.85198 8.00001C7.85198 6.39423 7.5902 4.77645 7.08131 3.75067C8.89776 4.30889 10.2222 6.00267 10.2222 8.00001C10.2222 9.99734 8.89776 11.6911 7.08131 12.2493Z" fill="white"/>
<path d="M7.08131 12.2493C7.5902 11.2236 7.85198 9.60578 7.85198 8.00001C7.85198 6.39423 7.5902 4.77645 7.08131 3.75067C8.89776 4.30889 10.2222 6.00267 10.2222 8.00001C10.2222 9.99734 8.89776 11.6911 7.08131 12.2493Z" fill="white"/>
</svg>
