<svg width="16" height="16" viewBox="0 0 16 16" fill="none" xmlns="http://www.w3.org/2000/svg">
<path d="M7.19844 2.66667C5.18967 2.66667 3.55554 5.05912 3.55554 8.00001C3.55554 10.9409 5.18967 13.3333 7.19844 13.3333C10.0912 13.3333 12.4444 10.9409 12.4444 8.00001C12.4444 5.05912 10.0912 2.66667 7.19844 2.66667ZM7.19844 12.4445C5.67186 12.4445 4.42987 10.4507 4.42987 8.00001C4.42987 5.54934 5.67142 3.55556 7.19844 3.55556C9.60897 3.55556 11.5701 5.54934 11.5701 8.00001C11.5701 10.4507 9.60897 12.4445 7.19844 12.4445Z" fill="white"/>
<path d="M7.19844 12.4445C5.67186 12.4445 4.42987 10.4507 4.42987 8.00001C4.42987 5.54934 5.67142 3.55556 7.19844 3.55556C9.60897 3.55556 11.5701 5.54934 11.5701 8.00001C11.5701 10.4507 9.60897 12.4445 7.19844 12.4445Z" fill="white"/>
</svg>
