<svg width="16" height="16" viewBox="0 0 16 16" fill="none" xmlns="http://www.w3.org/2000/svg">
<path d="M8.00002 2.66667C5.05913 2.66667 2.66669 5.05912 2.66669 8.00001C2.66669 10.9409 5.05913 13.3333 8.00002 13.3333C10.9409 13.3333 13.3334 10.9409 13.3334 8.00001C13.3334 5.05912 10.9409 2.66667 8.00002 2.66667ZM8.00002 12.4445C5.54935 12.4445 3.55558 10.4507 3.55558 8.00001C3.55558 5.54934 5.54935 3.55556 8.00002 3.55556C10.4507 3.55556 12.4445 5.54934 12.4445 8.00001C12.4445 10.4507 10.4507 12.4445 8.00002 12.4445Z" fill="white"/>
<path d="M8.00002 12.4445C5.54935 12.4445 3.55558 10.4507 3.55558 8.00001C3.55558 5.54934 5.54935 3.55556 8.00002 3.55556C10.4507 3.55556 12.4445 5.54934 12.4445 8.00001C12.4445 10.4507 10.4507 12.4445 8.00002 12.4445Z" fill="white"/>
</svg>
