<svg width="16" height="16" viewBox="0 0 16 16" fill="none" xmlns="http://www.w3.org/2000/svg">
<path d="M10.6666 3.55555C10.7845 3.55555 10.8976 3.50873 10.9809 3.42538C11.0643 3.34203 11.1111 3.22898 11.1111 3.11111C11.1111 2.99323 11.0643 2.88019 10.9809 2.79684C10.8976 2.71349 10.7845 2.66666 10.6666 2.66666C7.72576 2.66666 5.33331 5.05911 5.33331 8C5.33331 10.9409 7.72576 13.3333 10.6666 13.3333C10.7845 13.3333 10.8976 13.2865 10.9809 13.2032C11.0643 13.1198 11.1111 13.0068 11.1111 12.8889C11.1111 12.771 11.0643 12.658 10.9809 12.5746C10.8976 12.4913 10.7845 12.4444 10.6666 12.4444C10.2489 12.4444 9.48131 10.7573 9.48131 8C9.48131 5.24266 10.2489 3.55555 10.6666 3.55555ZM9.36309 12.2498C7.54665 11.6911 6.2222 9.99733 6.2222 8C6.2222 6.00266 7.54665 4.30889 9.36309 3.75022C8.8542 4.77644 8.59287 6.39422 8.59287 8C8.59287 9.60578 8.8542 11.2236 9.36309 12.2498Z" fill="white"/>
<path d="M9.36309 12.2498C7.54665 11.6911 6.2222 9.99733 6.2222 8C6.2222 6.00266 7.54665 4.30889 9.36309 3.75022C8.8542 4.77644 8.59287 6.39422 8.59287 8C8.59287 9.60578 8.8542 11.2236 9.36309 12.2498Z" fill="white"/>
</svg>
