<svg width="15" height="14" viewBox="0 0 15 14" fill="none" xmlns="http://www.w3.org/2000/svg">
<path d="M10.1519 6.99999C10.1519 5.2846 8.75618 3.88888 7.04079 3.88888C5.3254 3.88888 3.92968 5.2846 3.92968 6.99999C3.92968 8.71538 5.3254 10.1111 7.04079 10.1111C8.75618 10.1111 10.1519 8.71538 10.1519 6.99999ZM7.04079 9.33332C5.75396 9.33332 4.70746 8.28682 4.70746 6.99999C4.70746 5.71315 5.75396 4.66665 7.04079 4.66665C8.32762 4.66665 9.37412 5.71315 9.37412 6.99999C9.37412 8.28682 8.32762 9.33332 7.04079 9.33332ZM6.6519 1.55554H7.42968V3.1111H6.6519V1.55554ZM2.91623 3.42532L3.46612 2.87543L4.5659 3.97521L4.01601 4.5251L2.91623 3.42532ZM1.59634 6.6111H3.1519V7.38888H1.59634V6.6111ZM2.91623 10.5747L4.01601 9.47487L4.5659 10.0248L3.46612 11.1245L2.91623 10.5747ZM6.6519 10.8889H7.42968V12.4444H6.6519V10.8889ZM9.51568 10.0248L10.0656 9.47487L11.1653 10.5747L10.6155 11.1245L9.51568 10.0248ZM10.9297 6.6111H12.4852V7.38888H10.9297V6.6111ZM9.51568 3.97521L10.6155 2.87543L11.1653 3.42532L10.0656 4.5251L9.51568 3.97521Z" fill="white"/>
</svg>
