<svg width="14" height="14" viewBox="0 0 14 14" fill="none" xmlns="http://www.w3.org/2000/svg">
<path d="M10.0813 6.24003C10.0816 6.2281 10.0816 6.21599 10.0816 6.20406C10.0816 4.49362 8.69003 3.10202 6.9796 3.10202C5.524 3.10202 4.26986 4.12423 3.95594 5.52151C2.77185 5.83202 1.93878 6.89342 1.93878 8.14284C1.93878 9.63952 3.15657 10.8571 4.65307 10.8571H9.69388C10.9768 10.8571 12.0204 9.81351 12.0204 8.53059C12.0204 7.3874 11.1915 6.4341 10.0813 6.24003ZM9.69388 10.0816H4.65307C3.58409 10.0816 2.71429 9.21181 2.71429 8.14284C2.71429 7.1831 3.40271 6.37881 4.35127 6.23019L4.63792 6.18532L4.67579 5.89772C4.82725 4.74601 5.81785 3.87753 6.9796 3.87753C8.26252 3.87753 9.30613 4.92114 9.30613 6.20406H6.59184V6.97957H9.69388C10.5493 6.97957 11.2449 7.67537 11.2449 8.53059C11.2449 9.38581 10.5493 10.0816 9.69388 10.0816Z" fill="white"/>
</svg>
