<svg width="15" height="15" viewBox="0 0 15 15" fill="none" xmlns="http://www.w3.org/2000/svg">
<path d="M7.01546 12.5555C5.112 12.5555 3.55367 11.025 3.5408 9.13302C3.54965 8.65894 3.6297 8.21361 3.77894 7.79898C4.24957 6.49171 4.9869 5.53686 5.84088 4.43198C6.13775 4.05175 6.42835 3.66687 6.71256 3.27749L7.03437 2.83333L7.36421 3.27158C7.61643 3.60548 7.85898 3.91616 8.08988 4.21226C9.00782 5.38762 9.80026 6.40272 10.3027 7.79898C10.4515 8.21361 10.532 8.65894 10.5408 9.12279C10.5279 11.0246 8.9692 12.5555 7.06132 12.5555H7.01546ZM7.03799 11.768H7.05689C8.55327 11.768 9.72624 10.6116 9.7363 9.12751C9.73072 8.76406 9.6658 8.40382 9.54402 8.06043C9.08384 6.78152 8.36341 5.85934 7.4511 4.69067C7.31916 4.52215 7.18441 4.34929 7.04643 4.17013C6.85416 4.42568 6.6655 4.66981 6.48207 4.90685C5.66912 5.95975 4.96639 6.86854 4.53758 8.06043C4.4149 8.40713 4.34998 8.77088 4.34531 9.13775C4.35536 10.6116 5.52833 11.768 7.01948 11.768H7.03799Z" fill="white"/>
</svg>
