<svg width="14" height="14" viewBox="0 0 14 14" fill="none" xmlns="http://www.w3.org/2000/svg">
<path d="M11.493 5.52513L10.416 6.60213H9.006L8.69965 5.86291L9.94972 4.61285H11.3764V3.81714H10.1829V2.62357H9.38715V4.05028L8.13709 5.30034L7.39787 4.99399V3.58399L8.47487 2.507L7.9123 1.94443L7.00001 2.85671L6.08773 1.94443L5.52516 2.507L6.60216 3.58399V4.99399L5.86294 5.30034L4.61288 4.05028V2.62357H3.81717V3.81714H2.6236V4.61285H4.05031L5.30037 5.86291L4.99402 6.60213H3.58402L2.50703 5.52513L1.94446 6.0877L2.85674 6.99998L1.94446 7.91227L2.50703 8.47484L3.58402 7.39784H4.99402L5.30037 8.13706L4.05031 9.38712H2.6236V10.1828H3.81717V11.3764H4.61288V9.94969L5.86294 8.69962L6.60216 9.00597V10.416L5.52516 11.493L6.08773 12.0555L7.00001 11.1433L7.9123 12.0555L8.47487 11.493L7.39787 10.416V9.00597L8.13709 8.69962L9.38715 9.94969V11.3764H10.1829V10.1828H11.3764V9.38712H9.94972L8.69965 8.13706L9.006 7.39784H10.416L11.493 8.47484L12.0556 7.91227L11.1433 6.99998L12.0556 6.0877L11.493 5.52513ZM7.92582 7.92579L7.00001 8.30933L6.0742 7.92579L5.69067 6.99998L6.0742 6.07417L7.00001 5.69064L7.92582 6.07417L8.30936 6.99998L7.92582 7.92579Z" fill="white"/>
</svg>
