<svg width="36" height="36" viewBox="0 0 36 36" fill="none" xmlns="http://www.w3.org/2000/svg">
<path d="M18 31.5C25.4558 31.5 31.5 25.4558 31.5 18C31.5 10.5442 25.4558 4.5 18 4.5C10.5442 4.5 4.5 10.5442 4.5 18C4.5 25.4558 10.5442 31.5 18 31.5Z" stroke="white" stroke-width="2" stroke-miterlimit="10" stroke-linecap="round" stroke-linejoin="round"/>
<path fill-rule="evenodd" clip-rule="evenodd" d="M18.9363 9.16359C18.7899 8.77329 18.4168 8.51472 18 8.51472C17.5831 8.51472 17.21 8.77329 17.0636 9.16359L13.8817 17.6489C13.7968 17.8753 13.7968 18.1247 13.8817 18.3511L17.0636 26.8364C17.21 27.2267 17.5831 27.4853 18 27.4853C18.4168 27.4853 18.7899 27.2267 18.9363 26.8364L22.1183 18.3511C22.2032 18.1247 22.2032 17.8753 22.1183 17.6489L18.9363 9.16359ZM16.0735 18.5L18 23.6373L19.9265 18.5H16.0735ZM19.9265 17.5L18 12.3627L16.0735 17.5H19.9265Z" fill="white"/>
<path d="M19.9265 17.5L18 12.3627L16.0735 17.5H19.9265Z" fill="white"/>
</svg>
