<svg width="12" height="12" viewBox="0 0 12 12" fill="none" xmlns="http://www.w3.org/2000/svg">
<path d="M6 5.5C6.55228 5.5 7 5.05228 7 4.5C7 3.94772 6.55228 3.5 6 3.5C5.44772 3.5 5 3.94772 5 4.5C5 5.05228 5.44772 5.5 6 5.5Z" stroke="white" stroke-linecap="round" stroke-linejoin="round"/>
<path d="M6 10.5C6 10.5 9.5 8.07692 9.5 4.96154C9.5 4.04348 9.13125 3.16303 8.47487 2.51386C7.8185 1.8647 6.92826 1.5 6 1.5C5.07174 1.5 4.1815 1.8647 3.52513 2.51386C2.86875 3.16303 2.5 4.04348 2.5 4.96154C2.5 8.07692 6 10.5 6 10.5Z" stroke="white" stroke-linecap="round" stroke-linejoin="round"/>
</svg>
